<svg xmlns="http://www.w3.org/2000/svg" width="95.681" height="95.681" viewBox="0 0 95.681 95.681">
  <g id="instagram" transform="translate(0 0)">
    <path id="Path_16" data-name="Path 16" d="M1497.372,744.755a47.841,47.841,0,1,1-47.839-47.841A47.842,47.842,0,0,1,1497.372,744.755Z" transform="translate(-1401.69 -696.914)" fill="#757575"/>
    <g id="Group_8" data-name="Group 8" transform="translate(17.94 17.94)">
      <path id="Path_17" data-name="Path 17" d="M1458.931,705.914h-36.687a11.565,11.565,0,0,0-11.553,11.556v36.69a11.565,11.565,0,0,0,11.553,11.555h36.688a11.571,11.571,0,0,0,11.56-11.555v-36.69A11.571,11.571,0,0,0,1458.931,705.914Zm3.317,6.895,1.32-.008v10.134l-10.1.036-.034-10.134Zm-30.193,16.87a10.5,10.5,0,1,1-1.993,6.136A10.519,10.519,0,0,1,1432.055,729.679Zm32.611,24.48a5.739,5.739,0,0,1-5.735,5.731h-36.687a5.735,5.735,0,0,1-5.731-5.731v-24.48h8.928a16.354,16.354,0,1,0,30.294,0h8.932Z" transform="translate(-1410.69 -705.914)" fill="#fff"/>
    </g>
    <path id="Path_18" data-name="Path 18" d="M1497.372,744.755a47.841,47.841,0,1,1-47.839-47.841A47.842,47.842,0,0,1,1497.372,744.755Z" transform="translate(-1401.69 -696.914)" fill="#757575"/>
    <g id="Group_9" data-name="Group 9" transform="translate(17.94 17.94)">
      <path id="Path_19" data-name="Path 19" d="M1458.931,705.914h-36.687a11.565,11.565,0,0,0-11.553,11.556v36.69a11.565,11.565,0,0,0,11.553,11.555h36.688a11.571,11.571,0,0,0,11.56-11.555v-36.69A11.571,11.571,0,0,0,1458.931,705.914Zm3.317,6.895,1.32-.008v10.134l-10.1.036-.034-10.134Zm-30.193,16.87a10.5,10.5,0,1,1-1.993,6.136A10.519,10.519,0,0,1,1432.055,729.679Zm32.611,24.48a5.739,5.739,0,0,1-5.735,5.731h-36.687a5.735,5.735,0,0,1-5.731-5.731v-24.48h8.928a16.354,16.354,0,1,0,30.294,0h8.932Z" transform="translate(-1410.69 -705.914)" fill="#fff"/>
    </g>
    <path id="Path_20" data-name="Path 20" d="M1497.372,744.755a47.841,47.841,0,1,1-47.839-47.841A47.842,47.842,0,0,1,1497.372,744.755Z" transform="translate(-1401.69 -696.914)" fill="#429377"/>
    <g id="Group_10" data-name="Group 10" transform="translate(17.94 17.94)">
      <path id="Path_21" data-name="Path 21" d="M1458.931,705.914h-36.687a11.565,11.565,0,0,0-11.553,11.556v36.69a11.565,11.565,0,0,0,11.553,11.555h36.688a11.571,11.571,0,0,0,11.56-11.555v-36.69A11.571,11.571,0,0,0,1458.931,705.914Zm3.317,6.895,1.32-.008v10.134l-10.1.036-.034-10.134Zm-30.193,16.87a10.5,10.5,0,1,1-1.993,6.136A10.519,10.519,0,0,1,1432.055,729.679Zm32.611,24.48a5.739,5.739,0,0,1-5.735,5.731h-36.687a5.735,5.735,0,0,1-5.731-5.731v-24.48h8.928a16.354,16.354,0,1,0,30.294,0h8.932Z" transform="translate(-1410.69 -705.914)" fill="#fff"/>
    </g>
  </g>
</svg>
