<svg id="in" xmlns="http://www.w3.org/2000/svg" width="95.683" height="95.682" viewBox="0 0 95.683 95.682">
  <path id="Path_7" data-name="Path 7" d="M1095.122,619a47.841,47.841,0,1,1-47.84-47.841A47.84,47.84,0,0,1,1095.122,619Z" transform="translate(-999.439 -571.164)" fill="#585858"/>
  <g id="Group_4" data-name="Group 4" transform="translate(17.94 17.94)">
    <rect id="Rectangle_1" data-name="Rectangle 1" width="12.434" height="40.41" transform="translate(0.71 18.681)" fill="#fff"/>
    <path id="Path_8" data-name="Path 8" d="M1015.416,594.117a6.977,6.977,0,1,0-6.977-6.977A6.98,6.98,0,0,0,1015.416,594.117Z" transform="translate(-1008.439 -580.164)" fill="#fff"/>
    <path id="Path_9" data-name="Path 9" d="M1057.313,608.122c0-10.758-2.32-17.958-14.86-17.958-6.026,0-10.071,2.239-11.725,5.38h-.171v-5.38h-11.117v39.867h11.619v-19.76c0-5.211.985-10.258,7.431-10.258,6.351,0,6.863,5.96,6.863,10.593v19.426h11.96Z" transform="translate(-997.512 -570.231)" fill="#fff"/>
  </g>
  <path id="Path_10" data-name="Path 10" d="M1095.122,619a47.841,47.841,0,1,1-47.84-47.841A47.84,47.84,0,0,1,1095.122,619Z" transform="translate(-999.439 -571.164)" fill="#585858"/>
  <g id="Group_5" data-name="Group 5" transform="translate(17.94 17.94)">
    <rect id="Rectangle_2" data-name="Rectangle 2" width="12.434" height="40.41" transform="translate(0.71 18.681)" fill="#fff"/>
    <path id="Path_11" data-name="Path 11" d="M1015.416,594.117a6.977,6.977,0,1,0-6.977-6.977A6.98,6.98,0,0,0,1015.416,594.117Z" transform="translate(-1008.439 -580.164)" fill="#fff"/>
    <path id="Path_12" data-name="Path 12" d="M1057.313,608.122c0-10.758-2.32-17.958-14.86-17.958-6.026,0-10.071,2.239-11.725,5.38h-.171v-5.38h-11.117v39.867h11.619v-19.76c0-5.211.985-10.258,7.431-10.258,6.351,0,6.863,5.96,6.863,10.593v19.426h11.96Z" transform="translate(-997.512 -570.231)" fill="#fff"/>
  </g>
  <path id="Path_13" data-name="Path 13" d="M1095.122,619a47.841,47.841,0,1,1-47.84-47.841A47.84,47.84,0,0,1,1095.122,619Z" transform="translate(-999.439 -571.164)" fill="#429377"/>
  <g id="Group_6" data-name="Group 6" transform="translate(17.94 17.94)">
    <rect id="Rectangle_3" data-name="Rectangle 3" width="12.434" height="40.41" transform="translate(0.71 18.681)" fill="#fff"/>
    <path id="Path_14" data-name="Path 14" d="M1015.416,594.117a6.977,6.977,0,1,0-6.977-6.977A6.98,6.98,0,0,0,1015.416,594.117Z" transform="translate(-1008.439 -580.164)" fill="#fff"/>
    <path id="Path_15" data-name="Path 15" d="M1057.313,608.122c0-10.758-2.32-17.958-14.86-17.958-6.026,0-10.071,2.239-11.725,5.38h-.171v-5.38h-11.117v39.867h11.619v-19.76c0-5.211.985-10.258,7.431-10.258,6.351,0,6.863,5.96,6.863,10.593v19.426h11.96Z" transform="translate(-997.512 -570.231)" fill="#fff"/>
  </g>
</svg>
