<svg id="twitter" xmlns="http://www.w3.org/2000/svg" width="97.262" height="97.256" viewBox="0 0 97.262 97.256">
  <path id="Path_22" data-name="Path 22" d="M460.952,659.542a48.631,48.631,0,1,1-48.628-48.628A48.632,48.632,0,0,1,460.952,659.542Z" transform="translate(-363.69 -610.914)" fill="#8b8b8b"/>
  <g id="Group_11" data-name="Group 11" transform="translate(18.236 24.314)">
    <path id="Path_23" data-name="Path 23" d="M431.8,623.81a25.205,25.205,0,0,1-7.922,2.982,12.531,12.531,0,0,0-9.1-3.878,12.289,12.289,0,0,0-12.149,15.075,35.6,35.6,0,0,1-25.706-12.828,12.09,12.09,0,0,0-1.69,6.174,12.225,12.225,0,0,0,5.552,10.216,12.593,12.593,0,0,1-5.649-1.536v.154a12.339,12.339,0,0,0,10.005,12.04,12.66,12.66,0,0,1-3.289.432,12.829,12.829,0,0,1-2.346-.221,12.467,12.467,0,0,0,11.65,8.526,25.3,25.3,0,0,1-15.492,5.254,26.172,26.172,0,0,1-2.974-.17,35.741,35.741,0,0,0,19.119,5.513c22.94,0,35.482-18.7,35.482-34.927,0-.533-.008-1.064-.032-1.588a25.143,25.143,0,0,0,6.222-6.356,25.208,25.208,0,0,1-7.165,1.931A12.34,12.34,0,0,0,431.8,623.81Z" transform="translate(-372.69 -622.914)" fill="#fff"/>
  </g>
  <path id="Path_24" data-name="Path 24" d="M460.952,659.542a48.631,48.631,0,1,1-48.628-48.628A48.632,48.632,0,0,1,460.952,659.542Z" transform="translate(-363.69 -610.914)" fill="#8b8b8b"/>
  <g id="Group_12" data-name="Group 12" transform="translate(18.236 24.314)">
    <path id="Path_25" data-name="Path 25" d="M431.8,623.81a25.205,25.205,0,0,1-7.922,2.982,12.531,12.531,0,0,0-9.1-3.878,12.289,12.289,0,0,0-12.149,15.075,35.6,35.6,0,0,1-25.706-12.828,12.09,12.09,0,0,0-1.69,6.174,12.225,12.225,0,0,0,5.552,10.216,12.593,12.593,0,0,1-5.649-1.536v.154a12.339,12.339,0,0,0,10.005,12.04,12.66,12.66,0,0,1-3.289.432,12.829,12.829,0,0,1-2.346-.221,12.467,12.467,0,0,0,11.65,8.526,25.3,25.3,0,0,1-15.492,5.254,26.172,26.172,0,0,1-2.974-.17,35.741,35.741,0,0,0,19.119,5.513c22.94,0,35.482-18.7,35.482-34.927,0-.533-.008-1.064-.032-1.588a25.143,25.143,0,0,0,6.222-6.356,25.208,25.208,0,0,1-7.165,1.931A12.34,12.34,0,0,0,431.8,623.81Z" transform="translate(-372.69 -622.914)" fill="#fff"/>
  </g>
  <path id="Path_26" data-name="Path 26" d="M460.952,659.542a48.631,48.631,0,1,1-48.628-48.628A48.632,48.632,0,0,1,460.952,659.542Z" transform="translate(-363.69 -610.914)" fill="#429377"/>
  <g id="Group_13" data-name="Group 13" transform="translate(18.236 24.314)">
    <path id="Path_27" data-name="Path 27" d="M431.8,623.81a25.205,25.205,0,0,1-7.922,2.982,12.531,12.531,0,0,0-9.1-3.878,12.289,12.289,0,0,0-12.149,15.075,35.6,35.6,0,0,1-25.706-12.828,12.09,12.09,0,0,0-1.69,6.174,12.225,12.225,0,0,0,5.552,10.216,12.593,12.593,0,0,1-5.649-1.536v.154a12.339,12.339,0,0,0,10.005,12.04,12.66,12.66,0,0,1-3.289.432,12.829,12.829,0,0,1-2.346-.221,12.467,12.467,0,0,0,11.65,8.526,25.3,25.3,0,0,1-15.492,5.254,26.172,26.172,0,0,1-2.974-.17,35.741,35.741,0,0,0,19.119,5.513c22.94,0,35.482-18.7,35.482-34.927,0-.533-.008-1.064-.032-1.588a25.143,25.143,0,0,0,6.222-6.356,25.208,25.208,0,0,1-7.165,1.931A12.34,12.34,0,0,0,431.8,623.81Z" transform="translate(-372.69 -622.914)" fill="#fff"/>
  </g>
</svg>
